<?xml version="1.0" encoding="UTF-8" ?>
<!DOCTYPE svg PUBLIC "-//W3C//DTD SVG 1.1//EN" "http://www.w3.org/Graphics/SVG/1.1/DTD/svg11.dtd">
<svg width="64" height="64" viewBox="0 0 300 300" version="1.1" xmlns="http://www.w3.org/2000/svg">
  <path fill="#e62b1e" d=" M 0.00 0.00 L 300.00 0.00 L 300.00 300.00 L 0.00 300.00 L 0.00 0.00 Z" />
  <g transform="matrix(0.03998718,0,0,-0.03998718,48.060517,252.82719)">
    <path fill="#ffffff" d="M 2435,4551 C 2171,4486 1717,4227 1110,3796 947,3681 428,3291 373,3243 l -33,-28 158,-136 c 205,-176 448,-379 455,-379 3,0 7,105 9,233 3,229 3,233 30,283 28,53 85,111 140,141 31,17 104,18 1402,21 1531,3 1423,7 1510,-69 25,-22 57,-65 73,-97 28,-56 28,-61 33,-279 l 5,-223 175,147 c 96,80 227,191 290,246 63,55 119,104 123,108 5,3 -81,76 -190,161 -882,687 -1521,1088 -1873,1177 -100,25 -151,25 -245,2 z" />
    <path fill="#ffffff" d="M 135,2988 C 122,2943 120,2803 120,1894 120,863 120,850 141,795 168,722 245,639 318,603 l 57,-28 2170,0 2170,0 57,28 c 110,54 179,149 198,274 7,45 10,400 8,1068 -4,1001 -5,1034 -37,1084 -11,17 -2,24 -262,-204 -905,-796 -1654,-1317 -2019,-1405 -124,-31 -260,-6 -447,80 -414,192 -1122,718 -1928,1434 -66,58 -123,106 -127,106 -4,0 -14,-23 -23,-52 z" />
    <path fill="#ffffff" d="m 1677,3012 c -21,-24 -22,-90 -1,-120 l 15,-22 853,0 c 967,0 886,-8 886,83 0,84 75,77 -884,77 -814,0 -854,-1 -869,-18 z" />
    <path fill="#ffffff" d="m 1677,2622 c -21,-24 -22,-90 -1,-120 l 15,-22 853,0 c 967,0 886,-8 886,83 0,84 75,77 -884,77 -814,0 -854,-1 -869,-18 z" />
    <path fill="#ffffff" d="m 1677,2232 c -21,-24 -22,-90 -1,-120 l 15,-22 853,0 c 967,0 886,-8 886,83 0,84 75,77 -884,77 -814,0 -854,-1 -869,-18 z" />
  </g>
</svg>
