<?xml version="1.0" standalone="no"?>
<!DOCTYPE svg PUBLIC "-//W3C//DTD SVG 20010904//EN"
 "http://www.w3.org/TR/2001/REC-SVG-20010904/DTD/svg10.dtd">
<svg version="1.0" xmlns="http://www.w3.org/2000/svg"
 width="16.000000pt" height="16.000000pt" viewBox="0 0 16.000000 16.000000"
 preserveAspectRatio="xMidYMid meet">
<metadata>
Created by potrace 1.11, written by Peter Selinger 2001-2013
</metadata>
<g transform="translate(0.000000,16.000000) scale(0.000800,-0.000800)"
fill="#000000" stroke="none">
<path d="M980 11800 c-7 -13 -10 -154 -10 -410 l1 -390 442 -2 442 -3 5 -1158
5 -1158 470 1 c259 0 473 0 478 0 4 0 7 516 7 1148 0 631 0 1153 0 1160 0 9
94 12 435 12 l435 0 -2 408 -3 407 -1347 3 c-1332 2 -1347 2 -1358 -18z"/>
<path d="M3855 11808 c-3 -7 -4 -714 -3 -1571 l3 -1557 1309 0 c720 0 1311 2
1313 3 2 2 3 179 4 393 l0 389 -838 5 -838 5 0 195 0 195 838 5 838 5 0 360
c-1 198 -1 363 -1 368 0 4 -378 7 -840 7 l-840 0 2 193 3 192 838 5 838 5 0
393 c-1 215 -1 399 -1 407 0 13 -152 15 -1310 15 -1039 0 -1312 -3 -1315 -12z"/>
<path d="M6648 10254 c-2 -861 0 -1568 4 -1570 4 -3 329 -5 723 -4 550 0 719
-2 734 -12 16 -10 27 -10 55 0 19 7 49 13 68 12 156 -1 463 75 641 160 423
201 672 582 738 1130 14 110 14 420 0 530 -76 630 -383 1052 -886 1217 -78 26
-150 43 -178 43 -13 0 -27 3 -31 7 -4 4 -19 9 -34 10 -15 1 -54 4 -87 7 -33 2
-81 5 -107 5 -36 1 -48 5 -48 16 0 13 -95 15 -795 15 l-795 0 -2 -1566z m1407
731 c198 -28 311 -81 424 -200 125 -132 181 -287 187 -515 10 -439 -173 -719
-516 -788 -14 -3 -142 -6 -285 -6 l-260 -1 -3 750 c-1 413 0 756 3 763 6 17
321 16 450 -3z"/>
<path d="M9763 11808 c-2 -5 -1 -14 3 -20 8 -15 340 -500 517 -756 l119 -174
-29 -41 c-16 -23 -73 -105 -125 -182 -246 -363 -445 -654 -475 -697 -18 -26
-33 -50 -33 -53 0 -3 156 -4 347 -3 l347 3 128 215 c70 118 130 223 134 233 5
17 44 25 44 8 0 -8 60 -108 249 -418 l26 -43 348 0 347 0 -127 188 c-71 103
-159 234 -198 290 -38 57 -130 191 -202 298 -73 106 -133 198 -133 204 0 5 42
69 93 142 51 73 130 189 177 258 46 69 144 213 218 320 75 107 137 202 140
212 4 16 -17 17 -327 17 -183 0 -336 3 -340 6 -5 2 -71 -103 -146 -235 -76
-132 -142 -240 -146 -240 -5 0 -14 10 -20 23 -6 12 -66 118 -132 234 l-120
212 -339 3 c-187 2 -342 0 -345 -4z"/>
<path d="M2214 7920 c-6 -6 -51 -17 -100 -26 -413 -71 -751 -331 -949 -729
-141 -285 -193 -554 -182 -954 8 -323 54 -531 168 -766 141 -291 327 -470 616
-595 183 -79 341 -104 598 -97 401 11 627 106 884 372 41 42 77 72 80 68 4 -4
27 -88 51 -186 37 -152 47 -178 64 -183 12 -3 71 -4 131 -2 l110 3 3 808 2
807 -660 0 -660 0 2 -172 3 -173 469 -3 468 -2 -7 -83 c-29 -369 -139 -595
-363 -746 -283 -191 -741 -212 -1054 -49 -237 123 -399 397 -465 783 -24 141
-23 479 1 634 47 300 145 503 325 673 192 181 422 261 696 244 270 -17 481
-104 613 -252 60 -66 133 -205 161 -304 l18 -65 203 -3 203 -2 -7 50 c-20 148
-120 386 -214 510 -164 216 -408 351 -740 411 -64 11 -124 25 -134 30 -23 13
-321 12 -334 -1z"/>
<path d="M15990 7084 c-14 -2 -56 -9 -95 -15 -167 -27 -326 -111 -463 -243
-232 -224 -342 -529 -342 -946 0 -300 62 -524 202 -733 58 -87 191 -214 277
-265 319 -189 810 -151 1095 84 131 108 226 275 278 490 17 67 28 130 25 138
-5 14 -32 16 -175 16 -124 0 -172 -3 -179 -12 -5 -7 -19 -47 -32 -88 -50 -160
-153 -305 -259 -363 -102 -56 -263 -75 -397 -47 -89 18 -188 74 -244 137 -62
69 -125 198 -159 321 -24 91 -26 111 -26 317 0 188 3 234 22 316 55 251 168
432 313 502 158 77 390 77 532 0 101 -55 188 -184 226 -335 l19 -73 181 -3
181 -2 0 24 c0 43 -37 209 -63 284 -90 259 -289 421 -585 478 -77 15 -286 26
-332 18z"/>
<path d="M6435 7074 c-239 -33 -333 -64 -483 -157 -149 -93 -243 -268 -259
-484 l-6 -82 168 -3 c92 -2 170 -1 174 2 4 3 13 30 19 60 36 183 116 274 287
327 82 25 330 25 425 0 141 -38 231 -107 264 -204 18 -53 21 -189 6 -245 -13
-45 -76 -103 -127 -117 -22 -6 -185 -29 -363 -51 -179 -22 -356 -47 -394 -56
-231 -51 -427 -186 -505 -347 -106 -217 -88 -508 43 -686 59 -79 163 -169 241
-206 121 -58 181 -69 355 -69 135 1 168 4 255 27 167 45 344 146 458 262 30
30 57 55 60 55 4 0 7 -9 7 -20 0 -11 10 -50 22 -87 18 -55 33 -79 78 -123 70
-71 125 -90 257 -90 101 0 233 24 234 43 0 11 0 243 -1 259 0 4 -34 5 -74 1
-51 -4 -85 -2 -106 7 -62 26 -60 1 -60 762 -1 757 -1 765 -59 882 -28 57 -102
142 -158 181 -82 58 -241 116 -375 139 -88 16 -328 28 -383 20z m595 -1336
c-1 -208 -11 -264 -62 -360 -98 -184 -380 -320 -636 -306 -158 9 -280 79 -336
193 -26 51 -29 70 -29 144 0 135 41 220 137 286 80 55 184 83 431 116 228 31
378 64 443 98 20 11 41 19 45 18 5 -2 8 -87 7 -189z"/>
<path d="M5091 7054 c-30 -8 -81 -29 -115 -47 -74 -39 -237 -193 -286 -271
-19 -30 -38 -55 -42 -56 -5 0 -8 77 -8 170 l0 170 -177 -2 -178 -3 -3 -1092
-2 -1093 22 -5 c13 -3 97 -4 188 -3 l165 3 5 695 c5 638 7 699 24 750 52 158
157 290 277 349 81 39 207 63 314 59 l80 -3 3 189 c2 145 -1 191 -10 198 -21
13 -199 8 -257 -8z"/>
<path d="M8845 7051 c-153 -42 -238 -95 -368 -230 -48 -50 -90 -91 -92 -91 -3
0 -5 65 -5 145 l0 144 -176 3 c-97 2 -180 0 -185 -3 -5 -3 -8 -455 -7 -1100
l3 -1094 165 -3 c91 -1 175 0 187 3 l22 5 4 698 c3 682 4 699 25 781 32 119
82 210 156 279 209 195 550 198 662 5 57 -96 57 -99 63 -968 l6 -800 185 0
185 0 5 730 c6 724 6 731 29 805 12 41 34 97 49 124 98 181 356 286 567 231
121 -32 196 -91 232 -184 16 -42 18 -113 23 -876 l5 -830 190 0 190 0 0 835 0
835 -23 93 c-59 232 -190 381 -396 449 -75 25 -94 27 -256 27 -157 1 -183 -1
-250 -22 -147 -47 -273 -128 -363 -236 -27 -34 -54 -61 -58 -61 -4 0 -26 28
-48 63 -77 118 -165 186 -301 232 -95 32 -325 38 -425 11z"/>
<path d="M12208 7054 c-185 -33 -348 -122 -490 -266 -220 -225 -327 -519 -328
-903 0 -341 79 -597 247 -800 115 -137 305 -260 478 -307 69 -19 105 -22 270
-22 174 0 198 3 290 27 280 75 467 231 603 502 42 83 72 172 72 212 l0 23
-180 0 -180 0 -11 -27 c-90 -226 -193 -331 -384 -395 -60 -20 -89 -23 -205
-22 -117 1 -144 4 -206 26 -167 59 -273 175 -339 370 -24 74 -55 240 -55 301
l0 27 795 0 c717 0 796 2 802 16 9 23 -14 366 -31 460 -28 154 -75 286 -142
389 -122 191 -358 342 -610 391 -94 18 -293 17 -396 -2z m367 -329 c33 -9 85
-28 115 -42 76 -37 177 -141 218 -224 36 -75 79 -231 84 -304 l3 -50 -599 -3
-599 -2 7 72 c9 86 45 202 89 278 41 74 159 191 227 225 100 51 155 64 280 64
73 1 138 -5 175 -14z"/>
<path d="M14651 7054 c-97 -26 -170 -73 -277 -179 -55 -55 -113 -121 -130
-147 -16 -27 -32 -48 -36 -48 -5 0 -8 77 -8 170 l0 170 -175 0 -175 0 2 -1097
3 -1098 180 0 180 0 6 690 c6 746 4 722 61 847 35 75 110 171 168 213 101 74
257 113 398 101 l72 -7 0 195 c0 168 -2 195 -16 200 -29 11 -199 5 -253 -10z"/>
<path d="M17313 7022 l-201 -2 35 -98 c33 -95 73 -206 288 -802 59 -162 192
-533 296 -824 l190 -530 -17 -45 c-30 -80 -116 -284 -139 -331 -28 -55 -68
-94 -117 -114 -48 -20 -184 -21 -258 -1 -30 8 -61 15 -67 15 -10 0 -13 -40
-13 -165 0 -148 2 -165 18 -174 31 -16 153 -29 245 -25 175 7 300 56 385 149
129 141 363 705 803 1937 55 156 120 337 144 403 23 66 73 206 110 310 57 159
87 236 113 288 2 4 -92 6 -209 5 l-213 -3 -290 -877 c-160 -483 -293 -878
-296 -878 -3 0 -17 37 -31 83 -15 45 -131 399 -259 787 -128 388 -246 746
-263 797 -17 51 -35 93 -41 95 -6 2 -102 2 -213 0z"/>
<path d="M2470 3515 l0 -66 73 3 72 3 0 60 0 60 -72 3 -73 3 0 -66z"/>
<path d="M3684 3565 c-3 -8 -5 -67 -3 -130 3 -63 3 -115 1 -115 -2 0 -17 11
-34 25 -55 46 -160 56 -228 20 -33 -17 -84 -72 -103 -110 -44 -87 -41 -219 8
-314 65 -130 241 -167 348 -73 16 14 17 13 17 -11 0 -27 0 -27 75 -27 l75 0
-2 373 -3 372 -73 3 c-58 2 -73 0 -78 -13z m-47 -319 c77 -65 67 -258 -16
-300 -94 -49 -181 26 -181 157 0 106 46 167 126 167 30 0 51 -7 71 -24z"/>
<path d="M6677 3574 c-4 -4 -7 -63 -7 -132 l0 -124 -30 26 c-93 78 -251 47
-320 -61 -73 -115 -60 -304 28 -396 80 -85 240 -96 301 -23 19 23 31 20 31 -9
0 -26 1 -26 73 -23 l72 3 0 370 0 370 -70 3 c-39 1 -74 0 -78 -4z m-67 -319
c44 -23 64 -68 64 -150 1 -112 -43 -175 -121 -175 -42 0 -92 36 -110 78 -20
49 -19 151 3 197 28 61 101 83 164 50z"/>
<path d="M8440 3205 l0 -375 75 0 75 0 0 375 0 375 -75 0 -75 0 0 -375z"/>
<path d="M12210 3515 l0 -66 73 3 72 3 3 63 3 62 -76 0 -75 0 0 -65z"/>
<path d="M13930 3450 c0 -80 -4 -130 -10 -130 -5 0 -10 4 -10 8 0 5 -17 18
-37 29 -92 51 -189 38 -263 -37 -63 -62 -83 -123 -79 -233 7 -146 74 -241 190
-266 62 -14 130 0 176 35 39 29 40 29 39 2 -1 -22 4 -23 72 -26 l72 -3 0 376
0 375 -75 0 -75 0 0 -130z m-55 -202 c36 -28 55 -76 55 -140 0 -118 -38 -173
-120 -173 -89 0 -138 77 -127 199 8 90 51 136 128 136 22 0 47 -8 64 -22z"/>
<path d="M14397 3573 c-4 -3 -7 -35 -7 -69 l0 -63 113 -3 112 -3 2 -300 2
-300 80 -3 81 -3 2 303 3 303 113 3 113 3 -3 67 -3 67 -301 3 c-165 1 -303 -1
-307 -5z"/>
<path d="M15070 3205 l0 -375 285 0 286 0 -3 68 -3 67 -200 5 -200 5 0 85 0
85 180 5 180 5 0 60 0 60 -180 5 -180 5 0 75 0 75 198 3 197 2 0 70 0 70 -280
0 -280 0 0 -375z"/>
<path d="M15707 3573 c-4 -3 -7 -172 -7 -375 l0 -368 193 0 c142 0 207 4 244
15 141 42 225 175 227 360 2 142 -46 251 -138 312 -79 54 -127 63 -331 63
-100 0 -185 -3 -188 -7z m394 -164 c64 -36 92 -95 92 -202 1 -98 -12 -143 -56
-185 -42 -41 -81 -52 -184 -52 l-83 0 0 236 0 237 94 -5 c74 -4 103 -10 137
-29z"/>
<path d="M8128 3453 l-3 -78 -42 -3 -43 -3 0 -50 0 -49 45 0 45 0 0 -184 c0
-182 0 -185 25 -214 35 -42 141 -65 213 -46 21 6 23 11 20 62 l-3 56 -43 1
c-26 1 -47 7 -53 16 -5 8 -9 80 -9 161 l0 147 53 3 52 3 3 48 3 47 -55 0 -56
0 0 80 0 80 -75 0 -74 0 -3 -77z"/>
<path d="M18980 3450 l0 -80 -45 0 -45 0 0 -50 0 -50 45 0 45 0 0 -175 c0
-194 7 -222 59 -249 36 -19 120 -30 165 -22 l36 7 0 60 0 60 -34 -6 c-27 -6
-39 -2 -55 14 -20 20 -21 30 -19 164 l3 142 53 3 52 3 0 49 0 49 -52 3 -53 3
-3 78 -3 77 -74 0 -75 0 0 -80z"/>
<path d="M1010 3407 c0 -4 37 -60 82 -124 77 -110 80 -118 67 -140 -8 -13 -51
-78 -97 -143 l-83 -120 81 0 80 0 52 80 c29 44 58 80 64 80 6 0 35 -36 64 -80
l53 -80 79 0 c94 0 96 -14 -28 160 -46 65 -84 122 -84 125 0 9 127 193 153
223 11 12 17 22 14 23 -4 0 -40 0 -79 1 l-73 1 -45 -66 c-25 -37 -48 -65 -52
-64 -4 1 -27 31 -50 65 l-43 64 -78 1 c-42 1 -77 -2 -77 -6z"/>
<path d="M2956 3375 c-21 -7 -50 -25 -65 -39 -34 -33 -40 -33 -38 2 2 27 2 27
-70 30 l-73 3 0 -271 0 -270 74 0 74 0 4 178 c4 206 12 233 76 253 31 9 45 8
74 -4 50 -21 58 -55 58 -259 l0 -168 75 0 75 0 0 198 c0 112 -5 214 -11 237
-27 98 -144 149 -253 110z"/>
<path d="M4084 3372 c-117 -41 -184 -138 -184 -270 0 -76 16 -130 55 -183 88
-122 295 -140 403 -36 29 27 72 94 72 112 0 3 -28 5 -63 5 -55 0 -67 -3 -87
-25 -48 -51 -145 -57 -188 -12 -20 21 -42 67 -42 87 0 6 85 11 193 12 l192 3
-1 62 c-2 117 -74 217 -178 248 -64 19 -109 18 -172 -3z m147 -112 c21 -12 49
-60 49 -85 0 -13 -18 -15 -115 -15 -74 0 -115 4 -115 10 0 24 32 70 58 84 32
18 95 20 123 6z"/>
<path d="M4737 3375 c-22 -7 -50 -23 -63 -36 l-24 -22 0 26 c0 27 0 27 -75 27
l-75 0 0 -365 0 -365 75 0 75 0 0 120 c0 109 7 139 25 110 16 -25 92 -53 145
-53 157 0 260 153 230 341 -14 82 -39 131 -90 175 -63 53 -147 70 -223 42z
m113 -130 c32 -29 50 -80 50 -144 0 -103 -35 -158 -108 -168 -84 -11 -141 56
-142 167 0 66 32 138 70 158 32 17 105 9 130 -13z"/>
<path d="M5287 3376 c-95 -26 -168 -114 -189 -223 -9 -51 -8 -73 5 -129 27
-109 89 -172 196 -199 121 -32 231 8 292 103 42 66 39 72 -32 72 -54 0 -64 -3
-90 -30 -56 -56 -162 -49 -199 13 -11 18 -20 42 -20 54 0 22 1 23 193 25 l192
3 -3 50 c-5 109 -60 203 -144 246 -50 25 -140 32 -201 15z m141 -122 c22 -15
52 -63 52 -84 0 -6 -41 -10 -115 -10 -110 0 -115 1 -115 21 0 12 15 36 34 55
28 28 41 34 78 34 24 0 54 -7 66 -16z"/>
<path d="M5945 3379 c-16 -6 -47 -24 -67 -41 l-38 -29 0 31 0 30 -70 0 -70 0
0 -270 0 -270 75 0 75 0 0 170 c0 200 8 232 66 256 43 18 84 11 110 -18 17
-18 20 -43 24 -212 l5 -191 75 0 75 0 3 174 c4 246 -14 318 -89 356 -38 20
-136 28 -174 14z"/>
<path d="M7095 3381 c-131 -32 -210 -143 -208 -292 2 -164 113 -272 278 -272
79 0 134 19 178 61 28 27 67 91 67 112 0 6 -25 10 -59 10 -52 0 -63 -3 -89
-29 -75 -76 -222 -32 -222 66 0 22 1 23 193 25 l192 3 -2 59 c-6 177 -160 298
-328 257z m119 -122 c23 -11 56 -62 56 -88 0 -7 -38 -11 -115 -11 -106 0 -115
2 -115 19 0 24 37 70 64 81 30 13 81 12 110 -1z"/>
<path d="M7737 3376 c-39 -14 -67 -33 -80 -53 -14 -22 -28 -14 -25 15 l3 27
-72 3 -73 3 0 -271 0 -270 75 0 75 0 1 168 c0 198 8 229 62 256 33 16 45 17
78 7 21 -6 44 -22 51 -34 9 -15 14 -84 16 -209 l4 -188 74 0 74 0 0 193 c0
222 -11 279 -60 321 -53 44 -132 57 -203 32z"/>
<path d="M9649 3377 c-122 -35 -192 -136 -192 -277 0 -174 108 -283 278 -283
122 0 209 53 257 158 27 61 30 188 6 246 -23 53 -87 119 -135 141 -55 24 -156
31 -214 15z m155 -128 c39 -31 57 -73 58 -138 1 -71 -15 -121 -48 -152 -20
-19 -36 -24 -79 -24 -86 0 -125 52 -125 165 0 72 17 119 55 148 37 29 103 30
139 1z"/>
<path d="M10312 3370 c-23 -10 -56 -34 -72 -52 l-30 -32 0 42 0 42 -70 0 -70
0 0 -270 0 -270 74 0 74 0 4 163 c2 135 6 168 21 190 28 43 62 60 123 60 l55
0 -3 71 c-3 71 -3 71 -33 74 -16 1 -49 -7 -73 -18z"/>
<path d="M10610 3381 c-72 -22 -125 -69 -150 -136 -43 -112 -24 -259 44 -333
68 -76 239 -86 295 -18 22 27 31 18 31 -29 0 -84 -44 -135 -115 -135 -49 0
-87 18 -100 48 -9 20 -17 22 -88 22 -77 0 -78 0 -71 -22 23 -78 69 -118 162
-144 55 -15 73 -16 133 -6 112 19 172 58 203 134 13 29 16 90 16 319 l1 284
-70 3 -71 3 0 -31 0 -32 -30 31 c-45 45 -124 62 -190 42z m169 -137 c71 -60
67 -211 -8 -261 -90 -61 -181 8 -181 138 0 94 44 148 122 149 25 0 46 -8 67
-26z"/>
<path d="M11200 3377 c-72 -20 -116 -53 -140 -103 -32 -65 -24 -74 60 -74 70
0 71 0 82 30 13 39 35 50 96 50 56 0 82 -20 82 -63 0 -38 -30 -53 -149 -71
-126 -20 -166 -41 -193 -104 -74 -166 135 -294 311 -191 27 16 36 17 42 7 5
-7 9 -16 9 -20 0 -5 33 -8 73 -8 l72 0 -3 187 c-1 104 -5 207 -8 230 -11 86
-78 132 -207 139 -51 2 -99 -1 -127 -9z m175 -384 c-8 -43 -54 -73 -110 -73
-55 0 -85 22 -85 64 0 46 23 63 110 81 41 9 76 18 79 21 9 9 13 -56 6 -93z"/>
<path d="M11876 3380 c-16 -5 -46 -23 -68 -40 l-38 -31 0 31 0 31 -70 -3 -71
-3 0 -265 0 -265 75 -3 76 -3 0 171 c0 225 15 262 105 264 34 1 50 -5 67 -22
22 -22 23 -30 26 -218 l3 -195 77 3 77 3 0 205 c0 199 -1 207 -25 255 -15 29
-38 57 -56 67 -36 21 -137 31 -178 18z"/>
<path d="M13155 3381 c-86 -21 -160 -89 -192 -174 -15 -40 -16 -160 -3 -209
17 -61 69 -120 133 -152 102 -51 238 -37 310 32 28 27 67 91 67 112 0 6 -25
10 -59 10 -52 0 -63 -3 -89 -29 -35 -36 -90 -48 -143 -32 -43 13 -65 40 -75
89 l-6 32 193 2 194 3 -1 58 c-2 80 -49 176 -108 217 -64 44 -146 59 -221 41z
m119 -122 c23 -11 56 -62 56 -88 0 -7 -38 -11 -115 -11 -106 0 -115 2 -115 19
0 24 37 70 64 81 30 13 81 12 110 -1z"/>
<path d="M16878 3377 c-48 -14 -62 -22 -111 -66 -109 -98 -114 -301 -11 -412
115 -122 332 -109 422 25 46 69 44 76 -29 76 -54 0 -66 -4 -95 -30 -41 -35
-72 -45 -119 -36 -48 9 -84 44 -94 89 l-9 37 194 0 194 0 0 53 c0 104 -57 205
-141 247 -50 26 -141 33 -201 17z m141 -123 c19 -14 51 -69 51 -89 0 -7 -225
-6 -233 1 -11 11 30 80 55 91 34 17 100 15 127 -3z"/>
<path d="M17922 3372 c-179 -64 -240 -306 -118 -467 68 -88 231 -116 343 -59
46 24 65 40 91 84 17 30 32 58 32 62 0 4 -28 8 -63 8 -55 0 -67 -3 -87 -25
-48 -51 -145 -57 -188 -12 -20 21 -42 67 -42 87 0 6 85 11 193 12 l192 3 3 38
c4 52 -21 135 -57 184 -65 89 -189 124 -299 85z m161 -122 c25 -20 50 -73 40
-84 -7 -6 -233 -9 -233 -2 0 1 5 18 11 35 23 65 127 94 182 51z"/>
<path d="M18586 3376 c-21 -8 -51 -27 -67 -42 l-29 -28 0 32 0 32 -75 0 -75 0
0 -270 0 -271 78 3 77 3 5 187 c5 178 6 188 28 211 28 29 79 42 115 28 49 -19
57 -53 57 -251 l0 -180 75 0 75 0 0 213 c0 204 -1 216 -23 257 -14 27 -36 51
-59 62 -49 26 -133 32 -182 14z"/>
<path d="M2470 3100 l0 -270 75 0 75 0 0 270 0 270 -75 0 -75 0 0 -270z"/>
<path d="M8625 3353 c89 -230 185 -500 185 -523 0 -44 -23 -60 -86 -60 l-55 0
3 -62 3 -63 65 -3 c130 -7 175 27 233 179 70 183 197 530 197 540 0 6 -29 9
-77 7 l-76 -3 -54 -170 c-52 -162 -60 -183 -66 -174 -1 2 -27 81 -58 174 l-55
170 -83 3 c-77 3 -83 1 -76 -15z"/>
<path d="M12210 3100 l0 -270 75 0 75 0 0 270 0 270 -75 0 -75 0 0 -270z"/>
<path d="M12440 3315 l0 -55 125 0 c69 0 125 -2 125 -5 0 -3 -61 -73 -135
-156 l-135 -151 0 -59 0 -59 248 2 247 3 0 55 0 55 -143 0 c-78 0 -142 3 -142
6 0 4 61 75 135 158 l135 152 0 54 0 55 -230 0 -230 0 0 -55z"/>
<path d="M17221 3358 c0 -7 39 -128 88 -268 l87 -255 86 -3 85 -3 89 263 c49
144 91 266 92 271 2 4 -31 7 -74 5 l-78 -3 -51 -167 c-28 -92 -54 -170 -57
-173 -3 -4 -20 40 -38 97 -17 57 -41 135 -54 173 l-23 70 -76 3 c-58 2 -77 0
-76 -10z"/>
<path d="M1693 3263 c-8 -3 -13 -25 -13 -59 l0 -54 265 0 266 0 -3 58 -3 57
-250 2 c-137 1 -256 -1 -262 -4z"/>
<path d="M1687 3033 c-11 -10 -8 -103 3 -103 6 0 124 0 263 -1 l252 0 3 56 3
55 -259 0 c-142 0 -262 -3 -265 -7z"/>
</g>
</svg>
