<?xml version="1.0" encoding="UTF-8" ?>
<!DOCTYPE svg PUBLIC "-//W3C//DTD SVG 1.1//EN" "http://www.w3.org/Graphics/SVG/1.1/DTD/svg11.dtd">
<svg width="64" height="64" viewBox="0 0 300 300" version="1.1" xmlns="http://www.w3.org/2000/svg">
  <path fill="#e62b1e" d=" M 0.00 0.00 L 300.00 0.00 L 300.00 300.00 L 0.00 300.00 L 0.00 0.00 Z" />
  <path fill="#ffffff" d=" M 154.22 93.21 C 160.64 83.89 171.67 77.97 182.98 77.73 C 193.38 77.28 203.68 81.67 210.85 89.16 C 219.05 87.59 226.84 84.38 234.09 80.29 C 231.52 88.63 225.83 95.82 218.53 100.53 C 225.62 99.52 232.50 97.43 239.11 94.71 C 234.16 102.11 227.93 108.63 220.75 113.91 C 221.89 142.75 210.63 171.81 190.45 192.44 C 177.68 205.61 161.11 214.98 143.27 219.25 C 115.53 226.01 84.91 221.58 60.97 205.73 C 79.98 207.95 99.65 202.55 114.80 190.86 C 99.53 190.63 85.43 179.83 80.87 165.31 C 86.18 166.27 91.60 166.02 96.86 164.91 C 86.89 162.52 77.96 156.00 72.94 147.03 C 69.65 141.41 68.30 134.88 68.18 128.43 C 73.25 131.03 78.76 132.68 84.45 133.11 C 76.77 127.67 70.99 119.42 69.28 110.10 C 67.39 101.32 69.13 92.00 73.50 84.23 C 91.73 106.68 119.48 121.01 148.40 122.49 C 146.32 112.48 148.21 101.57 154.22 93.21 Z" />
</svg>
